# xmcd CD database file
#
# Track frame offsets:
#	150
#	23694
#	49479
#	71709
#	95888
#	118772
#	142284
#	162065
#	183668
#	208138
#	230245
#	246559
#	267592
#	285299
#
# Disc length: 4098 seconds
#
# Revision: 0
# Processed by: cddbd v1.5.2PL0 Copyright (c) Steve Scherf et al.
# Submitted via: CDex 1.70beta2
#
DISCID=e810000e
DTITLE=Thierno Koite - Ubbite
DYEAR=2005
DGENRE=Jazz
TTITLE0=Kharit Yama Saf
TTITLE1=Totonima
TTITLE2=Sandji Yo
TTITLE3=Cossaname
TTITLE4=Coura
TTITLE5=Wakhatilene
TTITLE6=Nepad
TTITLE7=Tawhid
TTITLE8=Tolerance
TTITLE9=Li Ci Seye
TTITLE10=Kele Casamance
TTITLE11=Niaw Njorte
TTITLE12=Ecologie
TTITLE13=Guestuma
EXTD=YEAR: 2005
EXTT0=
EXTT1=
EXTT2=
EXTT3=
EXTT4=
EXTT5=
EXTT6=
EXTT7=
EXTT8=
EXTT9=
EXTT10=
EXTT11=
EXTT12=
EXTT13=
PLAYORDER=
